NotoSansMro-Regular.ufo
<glyph name="u16A40" format="2">
  <advance width="748"/>
  <unicode hex="16A40"/>
  <outline>
    <contour>
      <point x="354" y="-10" type="curve" smooth="yes"/>
      <point x="579" y="-10"/>
      <point x="688" y="145"/>
      <point x="688" y="370" type="curve" smooth="yes"/>
      <point x="688" y="583"/>
      <point x="555" y="725"/>
      <point x="353" y="725" type="curve" smooth="yes"/>
      <point x="181" y="725"/>
      <point x="71" y="628"/>
      <point x="50" y="500" type="curve"/>
      <point x="148" y="500" type="line"/>
      <point x="168" y="593"/>
      <point x="249" y="645"/>
      <point x="344" y="645" type="curve" smooth="yes"/>
      <point x="499" y="645"/>
      <point x="593" y="548"/>
      <point x="593" y="369" type="curve" smooth="yes"/>
      <point x="593" y="194"/>
      <point x="512" y="70"/>
      <point x="353" y="70" type="curve" smooth="yes"/>
      <point x="243" y="70"/>
      <point x="169" y="118"/>
      <point x="148" y="214" type="curve"/>
      <point x="50" y="214" type="line"/>
      <point x="72" y="82"/>
      <point x="176" y="-10"/>
    </contour>
  </outline>
</glyph>
<glyph name="u16A41" format="2">
  <advance width="677"/>
  <unicode hex="16A41"/>
  <outline>
    <contour>
      <point x="35" y="0" type="line"/>
      <point x="577" y="0" type="line"/>
      <point x="577" y="714" type="line"/>
      <point x="487" y="714" type="line"/>
      <point x="487" y="80" type="line"/>
      <point x="35" y="80" type="line"/>
    </contour>
  </outline>
</glyph>
<glyph name="u16A42" format="2">
  <advance width="677"/>
  <unicode hex="16A42"/>
  <outline>
    <contour>
      <point x="100" y="0" type="line"/>
      <point x="642" y="0" type="line"/>
      <point x="642" y="80" type="line"/>
      <point x="190" y="80" type="line"/>
      <point x="190" y="714" type="line"/>
      <point x="100" y="714" type="line"/>
    </contour>
  </outline>
</glyph>
<glyph name="u16A43" format="2">
  <advance width="634"/>
  <unicode hex="16A43"/>
  <outline>
    <contour>
      <point x="454" y="0" type="line"/>
      <point x="544" y="0" type="line"/>
      <point x="544" y="478" type="line" smooth="yes"/>
      <point x="544" y="671"/>
      <point x="407" y="725"/>
      <point x="298" y="725" type="curve" smooth="yes"/>
      <point x="150" y="725"/>
      <point x="50" y="633"/>
      <point x="50" y="494" type="curve" smooth="yes"/>
      <point x="50" y="353"/>
      <point x="139" y="268"/>
      <point x="280" y="268" type="curve" smooth="yes"/>
      <point x="369" y="268"/>
      <point x="448" y="285"/>
      <point x="513" y="299" type="curve"/>
      <point x="499" y="381" type="line"/>
      <point x="451" y="366"/>
      <point x="357" y="348"/>
      <point x="284" y="348" type="curve" smooth="yes"/>
      <point x="191" y="348"/>
      <point x="145" y="401"/>
      <point x="145" y="497" type="curve" smooth="yes"/>
      <point x="145" y="591"/>
      <point x="205" y="645"/>
      <point x="298" y="645" type="curve" smooth="yes"/>
      <point x="369" y="645"/>
      <point x="454" y="608"/>
      <point x="454" y="479" type="curve" smooth="yes"/>
    </contour>
  </outline>
</glyph>
<glyph name="u16A44" format="2">
  <advance width="635"/>
  <unicode hex="16A44"/>
  <outline>
    <contour>
      <point x="30" y="0" type="line"/>
      <point x="605" y="0" type="line"/>
      <point x="605" y="80" type="line"/>
      <point x="363" y="80" type="line"/>
      <point x="363" y="714" type="line"/>
      <point x="273" y="714" type="line"/>
      <point x="273" y="80" type="line"/>
      <point x="30" y="80" type="line"/>
    </contour>
  </outline>
</glyph>
<glyph name="u16A45" format="2">
  <advance width="666"/>
  <unicode hex="16A45"/>
  <outline>
    <contour>
      <point x="20" y="0" type="line"/>
      <point x="114" y="0" type="line"/>
      <point x="282" y="458" type="line" smooth="yes"/>
      <point x="301" y="511"/>
      <point x="321" y="567"/>
      <point x="333" y="614" type="curve"/>
      <point x="343" y="567"/>
      <point x="364" y="510"/>
      <point x="384" y="456" type="curve" smooth="yes"/>
      <point x="551" y="0" type="line"/>
      <point x="646" y="0" type="line"/>
      <point x="378" y="714" type="line"/>
      <point x="288" y="714" type="line"/>
    </contour>
  </outline>
</glyph>
<glyph name="u16A46" format="2">
  <advance width="659"/>
  <unicode hex="16A46"/>
  <outline>
    <contour>
      <point x="467" y="0" type="line"/>
      <point x="557" y="0" type="line"/>
      <point x="557" y="361" type="line"/>
      <point x="494" y="361" type="line"/>
      <point x="456" y="355"/>
      <point x="410" y="350"/>
      <point x="351" y="350" type="curve" smooth="yes"/>
      <point x="223" y="350"/>
      <point x="145" y="388"/>
      <point x="145" y="498" type="curve" smooth="yes"/>
      <point x="145" y="607"/>
      <point x="223" y="645"/>
      <point x="351" y="645" type="curve" smooth="yes"/>
      <point x="421" y="645"/>
      <point x="484" y="640"/>
      <point x="532" y="630" type="curve"/>
      <point x="559" y="706" type="line"/>
      <point x="495" y="722"/>
      <point x="421" y="725"/>
      <point x="351" y="725" type="curve" smooth="yes"/>
      <point x="170" y="725"/>
      <point x="50" y="646"/>
      <point x="50" y="501" type="curve" smooth="yes"/>
      <point x="50" y="361"/>
      <point x="149" y="270"/>
      <point x="351" y="270" type="curve" smooth="yes"/>
      <point x="392" y="270"/>
      <point x="430" y="271"/>
      <point x="467" y="275" type="curve"/>
    </contour>
  </outline>
</glyph>
<glyph name="u16A47" format="2">
  <advance width="577"/>
  <unicode hex="16A47"/>
  <outline>
    <contour>
      <point x="100" y="0" type="line"/>
      <point x="542" y="0" type="line"/>
      <point x="542" y="80" type="line"/>
      <point x="190" y="80" type="line"/>
      <point x="190" y="634" type="line"/>
      <point x="542" y="634" type="line"/>
      <point x="542" y="714" type="line"/>
      <point x="100" y="714" type="line"/>
    </contour>
  </outline>
</glyph>
<glyph name="u16A48" format="2">
  <advance width="677"/>
  <unicode hex="16A48"/>
  <outline>
    <contour>
      <point x="487" y="0" type="line"/>
      <point x="577" y="0" type="line"/>
      <point x="577" y="714" type="line"/>
      <point x="35" y="714" type="line"/>
      <point x="35" y="634" type="line"/>
      <point x="487" y="634" type="line"/>
    </contour>
  </outline>
</glyph>
<glyph name="u16A49" format="2">
  <advance width="577"/>
  <unicode hex="16A49"/>
  <outline>
    <contour>
      <point x="35" y="0" type="line"/>
      <point x="477" y="0" type="line"/>
      <point x="477" y="714" type="line"/>
      <point x="35" y="714" type="line"/>
      <point x="35" y="634" type="line"/>
      <point x="387" y="634" type="line"/>
      <point x="387" y="80" type="line"/>
      <point x="35" y="80" type="line"/>
    </contour>
  </outline>
</glyph>
<glyph name="u16A4A" format="2">
  <advance width="706"/>
  <unicode hex="16A4A"/>
  <outline>
    <contour>
      <point x="100" y="0" type="line"/>
      <point x="140" y="0" type="line"/>
      <point x="527" y="334" type="line"/>
      <point x="531" y="334" type="line"/>
      <point x="527" y="287"/>
      <point x="523" y="213"/>
      <point x="523" y="140" type="curve" smooth="yes"/>
      <point x="523" y="0" type="line"/>
      <point x="606" y="0" type="line"/>
      <point x="606" y="474" type="line"/>
      <point x="575" y="474" type="line"/>
      <point x="181" y="133" type="line"/>
      <point x="177" y="133" type="line"/>
      <point x="179" y="165"/>
      <point x="184" y="256"/>
      <point x="184" y="321" type="curve" smooth="yes"/>
      <point x="184" y="714" type="line"/>
      <point x="100" y="714" type="line"/>
    </contour>
  </outline>
</glyph>
<glyph name="u16A4B" format="2">
  <advance width="635"/>
  <unicode hex="16A4B"/>
  <outline>
    <contour>
      <point x="273" y="0" type="line"/>
      <point x="363" y="0" type="line"/>
      <point x="363" y="634" type="line"/>
      <point x="605" y="634" type="line"/>
      <point x="605" y="714" type="line"/>
      <point x="30" y="714" type="line"/>
      <point x="30" y="634" type="line"/>
      <point x="273" y="634" type="line"/>
    </contour>
  </outline>
</glyph>
<glyph name="u16A4C" format="2">
  <advance width="516"/>
  <unicode hex="16A4C"/>
  <outline>
    <contour>
      <point x="100" y="0" type="line"/>
      <point x="190" y="0" type="line"/>
      <point x="190" y="333" type="line"/>
      <point x="456" y="333" type="line"/>
      <point x="456" y="412" type="line"/>
      <point x="190" y="412" type="line"/>
      <point x="190" y="714" type="line"/>
      <point x="100" y="714" type="line"/>
    </contour>
  </outline>
</glyph>
<glyph name="u16A4D" format="2">
  <advance width="666"/>
  <unicode hex="16A4D"/>
  <outline>
    <contour>
      <point x="288" y="0" type="line"/>
      <point x="378" y="0" type="line"/>
      <point x="646" y="714" type="line"/>
      <point x="551" y="714" type="line"/>
      <point x="384" y="258" type="line" smooth="yes"/>
      <point x="364" y="204"/>
      <point x="344" y="147"/>
      <point x="333" y="100" type="curve"/>
      <point x="321" y="147"/>
      <point x="301" y="204"/>
      <point x="282" y="256" type="curve" smooth="yes"/>
      <point x="114" y="714" type="line"/>
      <point x="20" y="714" type="line"/>
    </contour>
  </outline>
</glyph>
<glyph name="u16A4E" format="2">
  <advance width="659"/>
  <unicode hex="16A4E"/>
  <outline>
    <contour>
      <point x="351" y="-10" type="curve" smooth="yes"/>
      <point x="421" y="-10"/>
      <point x="495" y="-7"/>
      <point x="559" y="9" type="curve"/>
      <point x="532" y="85" type="line"/>
      <point x="484" y="75"/>
      <point x="421" y="70"/>
      <point x="351" y="70" type="curve" smooth="yes"/>
      <point x="223" y="70"/>
      <point x="145" y="108"/>
      <point x="145" y="217" type="curve" smooth="yes"/>
      <point x="145" y="327"/>
      <point x="223" y="365"/>
      <point x="351" y="365" type="curve" smooth="yes"/>
      <point x="410" y="365"/>
      <point x="456" y="360"/>
      <point x="494" y="354" type="curve"/>
      <point x="557" y="354" type="line"/>
      <point x="557" y="715" type="line"/>
      <point x="467" y="715" type="line"/>
      <point x="467" y="440" type="line"/>
      <point x="430" y="444"/>
      <point x="392" y="445"/>
      <point x="351" y="445" type="curve" smooth="yes"/>
      <point x="149" y="445"/>
      <point x="50" y="354"/>
      <point x="50" y="214" type="curve" smooth="yes"/>
      <point x="50" y="69"/>
      <point x="170" y="-10"/>
    </contour>
  </outline>
</glyph>
<glyph name="u16A4F" format="2">
  <advance width="642"/>
  <unicode hex="16A4F"/>
  <outline>
    <contour>
      <point x="276" y="0" type="line"/>
      <point x="366" y="0" type="line"/>
      <point x="366" y="333" type="line"/>
      <point x="582" y="333" type="line"/>
      <point x="582" y="412" type="line"/>
      <point x="366" y="412" type="line"/>
      <point x="366" y="714" type="line"/>
      <point x="276" y="714" type="line"/>
      <point x="276" y="412" type="line"/>
      <point x="60" y="412" type="line"/>
      <point x="60" y="333" type="line"/>
      <point x="276" y="333" type="line"/>
    </contour>
    <contour>
      <point x="91" y="125" type="line"/>
      <point x="181" y="125" type="line"/>
      <point x="181" y="201" type="line"/>
      <point x="91" y="201" type="line"/>
    </contour>
    <contour>
      <point x="461" y="125" type="line"/>
      <point x="551" y="125" type="line"/>
      <point x="551" y="201" type="line"/>
      <point x="461" y="201" type="line"/>
    </contour>
    <contour>
      <point x="91" y="544" type="line"/>
      <point x="181" y="544" type="line"/>
      <point x="181" y="620" type="line"/>
      <point x="91" y="620" type="line"/>
    </contour>
    <contour>
      <point x="461" y="544" type="line"/>
      <point x="551" y="544" type="line"/>
      <point x="551" y="620" type="line"/>
      <point x="461" y="620" type="line"/>
    </contour>
  </outline>
</glyph>
<glyph name="u16A50" format="2">
  <advance width="659"/>
  <unicode hex="16A50"/>
  <outline>
    <contour>
      <point x="102" y="0" type="line"/>
      <point x="192" y="0" type="line"/>
      <point x="192" y="275" type="line"/>
      <point x="229" y="271"/>
      <point x="267" y="270"/>
      <point x="308" y="270" type="curve" smooth="yes"/>
      <point x="510" y="270"/>
      <point x="609" y="361"/>
      <point x="609" y="501" type="curve" smooth="yes"/>
      <point x="609" y="646"/>
      <point x="489" y="725"/>
      <point x="308" y="725" type="curve" smooth="yes"/>
      <point x="238" y="725"/>
      <point x="164" y="722"/>
      <point x="100" y="706" type="curve"/>
      <point x="127" y="630" type="line"/>
      <point x="175" y="640"/>
      <point x="238" y="645"/>
      <point x="308" y="645" type="curve" smooth="yes"/>
      <point x="436" y="645"/>
      <point x="514" y="607"/>
      <point x="514" y="498" type="curve" smooth="yes"/>
      <point x="514" y="388"/>
      <point x="436" y="350"/>
      <point x="308" y="350" type="curve" smooth="yes"/>
      <point x="249" y="350"/>
      <point x="203" y="355"/>
      <point x="165" y="361" type="curve"/>
      <point x="102" y="361" type="line"/>
    </contour>
  </outline>
</glyph>
<glyph name="u16A51" format="2">
  <advance width="609"/>
  <unicode hex="16A51"/>
  <outline>
    <contour>
      <point x="298" y="-10" type="curve" smooth="yes"/>
      <point x="452" y="-10"/>
      <point x="538" y="85"/>
      <point x="538" y="192" type="curve" smooth="yes"/>
      <point x="538" y="244"/>
      <point x="514" y="283"/>
      <point x="471" y="343" type="curve" smooth="yes"/>
      <point x="201" y="715" type="line"/>
      <point x="94" y="715" type="line"/>
      <point x="417" y="275" type="line" smooth="yes"/>
      <point x="436" y="249"/>
      <point x="445" y="223"/>
      <point x="445" y="191" type="curve" smooth="yes"/>
      <point x="445" y="118"/>
      <point x="381" y="69"/>
      <point x="298" y="69" type="curve" smooth="yes"/>
      <point x="208" y="69"/>
      <point x="142" y="119"/>
      <point x="142" y="199" type="curve" smooth="yes"/>
      <point x="142" y="272"/>
      <point x="191" y="322"/>
      <point x="284" y="322" type="curve" smooth="yes"/>
      <point x="325" y="322"/>
      <point x="384" y="317"/>
      <point x="426" y="313" type="curve"/>
      <point x="360" y="397" type="line"/>
      <point x="335" y="399"/>
      <point x="308" y="401"/>
      <point x="280" y="401" type="curve" smooth="yes"/>
      <point x="153" y="401"/>
      <point x="50" y="332"/>
      <point x="50" y="191" type="curve" smooth="yes"/>
      <point x="50" y="82"/>
      <point x="138" y="-10"/>
    </contour>
    <contour>
      <point x="394" y="525" type="curve" smooth="yes"/>
      <point x="525" y="525"/>
      <point x="578" y="594"/>
      <point x="610" y="668" type="curve"/>
      <point x="547" y="694" type="line"/>
      <point x="518" y="629"/>
      <point x="470" y="604"/>
      <point x="393" y="604" type="curve" smooth="yes"/>
      <point x="295" y="604"/>
      <point x="261" y="632"/>
      <point x="220" y="688" type="curve"/>
      <point x="229" y="565" type="line"/>
      <point x="252" y="554"/>
      <point x="305" y="525"/>
    </contour>
    <contour>
      <point x="343" y="649" type="line"/>
      <point x="433" y="649" type="line"/>
      <point x="433" y="725" type="line"/>
      <point x="343" y="725" type="line"/>
    </contour>
  </outline>
</glyph>
<glyph name="u16A52" format="2">
  <advance width="845"/>
  <unicode hex="16A52"/>
  <outline>
    <contour>
      <point x="256" y="-10" type="curve" smooth="yes"/>
      <point x="458" y="-10"/>
      <point x="612" y="141"/>
      <point x="612" y="412" type="curve" smooth="yes"/>
      <point x="612" y="589"/>
      <point x="499" y="725"/>
      <point x="315" y="725" type="curve" smooth="yes"/>
      <point x="163" y="725"/>
      <point x="81" y="631"/>
      <point x="81" y="530" type="curve" smooth="yes"/>
      <point x="81" y="430"/>
      <point x="143" y="345"/>
      <point x="329" y="345" type="curve" smooth="yes"/>
      <point x="389" y="345"/>
      <point x="460" y="358"/>
      <point x="546" y="384" type="curve"/>
      <point x="527" y="459" type="line"/>
      <point x="463" y="434"/>
      <point x="367" y="425"/>
      <point x="316" y="425" type="curve" smooth="yes"/>
      <point x="210" y="425"/>
      <point x="173" y="480"/>
      <point x="173" y="532" type="curve" smooth="yes"/>
      <point x="173" y="592"/>
      <point x="225" y="645"/>
      <point x="312" y="645" type="curve" smooth="yes"/>
      <point x="443" y="645"/>
      <point x="518" y="538"/>
      <point x="518" y="414" type="curve" smooth="yes"/>
      <point x="518" y="178"/>
      <point x="410" y="70"/>
      <point x="243" y="70" type="curve" smooth="yes"/>
      <point x="181" y="70"/>
      <point x="150" y="97"/>
      <point x="150" y="136" type="curve" smooth="yes"/>
      <point x="150" y="186"/>
      <point x="204" y="195"/>
      <point x="228" y="195" type="curve" smooth="yes"/>
      <point x="367" y="195"/>
      <point x="454" y="-10"/>
      <point x="624" y="-10" type="curve" smooth="yes"/>
      <point x="720" y="-10"/>
      <point x="788" y="43"/>
      <point x="852" y="139" type="curve"/>
      <point x="806" y="180" type="line"/>
      <point x="746" y="97"/>
      <point x="682" y="70"/>
      <point x="629" y="70" type="curve" smooth="yes"/>
      <point x="515" y="70"/>
      <point x="406" y="275"/>
      <point x="229" y="275" type="curve" smooth="yes"/>
      <point x="121" y="275"/>
      <point x="60" y="203"/>
      <point x="60" y="132" type="curve" smooth="yes"/>
      <point x="60" y="27"/>
      <point x="150" y="-10"/>
    </contour>
  </outline>
</glyph>
<glyph name="u16A53" format="2">
  <advance width="664"/>
  <unicode hex="16A53"/>
  <outline>
    <contour>
      <point x="484" y="0" type="line"/>
      <point x="574" y="0" type="line"/>
      <point x="574" y="478" type="line" smooth="yes"/>
      <point x="574" y="671"/>
      <point x="417" y="725"/>
      <point x="308" y="725" type="curve" smooth="yes"/>
      <point x="160" y="725"/>
      <point x="50" y="633"/>
      <point x="50" y="483" type="curve" smooth="yes"/>
      <point x="50" y="353"/>
      <point x="145" y="264"/>
      <point x="272" y="264" type="curve" smooth="yes"/>
      <point x="370" y="264"/>
      <point x="413" y="314"/>
      <point x="413" y="386" type="curve" smooth="yes"/>
      <point x="413" y="459"/>
      <point x="359" y="537"/>
      <point x="129" y="550" type="curve"/>
      <point x="120" y="470" type="line"/>
      <point x="265" y="470"/>
      <point x="323" y="423"/>
      <point x="323" y="386" type="curve" smooth="yes"/>
      <point x="323" y="367"/>
      <point x="317" y="344"/>
      <point x="265" y="344" type="curve" smooth="yes"/>
      <point x="191" y="344"/>
      <point x="141" y="401"/>
      <point x="141" y="497" type="curve" smooth="yes"/>
      <point x="141" y="591"/>
      <point x="215" y="645"/>
      <point x="308" y="645" type="curve" smooth="yes"/>
      <point x="379" y="645"/>
      <point x="484" y="608"/>
      <point x="484" y="479" type="curve" smooth="yes"/>
    </contour>
  </outline>
</glyph>
<glyph name="u16A54" format="2">
  <advance width="690"/>
  <unicode hex="16A54"/>
  <outline>
    <contour>
      <point x="483" y="0" type="line"/>
      <point x="573" y="0" type="line"/>
      <point x="573" y="634" type="line"/>
      <point x="670" y="634" type="line"/>
      <point x="670" y="714" type="line"/>
      <point x="80" y="714" type="line"/>
      <point x="80" y="634" type="line"/>
      <point x="483" y="634" type="line"/>
    </contour>
    <contour>
      <point x="351" y="0" type="curve" smooth="yes"/>
      <point x="507" y="0" type="line"/>
      <point x="518" y="80" type="line"/>
      <point x="351" y="80" type="line" smooth="yes"/>
      <point x="218" y="80"/>
      <point x="145" y="127"/>
      <point x="145" y="227" type="curve" smooth="yes"/>
      <point x="145" y="337"/>
      <point x="223" y="370"/>
      <point x="351" y="370" type="curve" smooth="yes"/>
      <point x="494" y="370" type="line"/>
      <point x="507" y="450" type="line"/>
      <point x="351" y="450" type="line" smooth="yes"/>
      <point x="151" y="450"/>
      <point x="50" y="354"/>
      <point x="50" y="224" type="curve" smooth="yes"/>
      <point x="50" y="98"/>
      <point x="154" y="0"/>
    </contour>
  </outline>
</glyph>
<glyph name="u16A55" format="2">
  <advance width="740"/>
  <unicode hex="16A55"/>
  <outline>
    <contour>
      <point x="246" y="-10" type="curve" smooth="yes"/>
      <point x="353" y="-10"/>
      <point x="400" y="39"/>
      <point x="437" y="89" type="curve"/>
      <point x="384" y="135" type="line"/>
      <point x="364" y="110"/>
      <point x="325" y="70"/>
      <point x="248" y="70" type="curve" smooth="yes"/>
      <point x="188" y="70"/>
      <point x="142" y="109"/>
      <point x="142" y="164" type="curve" smooth="yes"/>
      <point x="142" y="237"/>
      <point x="209" y="290"/>
      <point x="312" y="290" type="curve" smooth="yes"/>
      <point x="430" y="290"/>
      <point x="543" y="247"/>
      <point x="593" y="183" type="curve"/>
      <point x="627" y="274" type="line"/>
      <point x="558" y="326"/>
      <point x="435" y="370"/>
      <point x="317" y="370" type="curve" smooth="yes"/>
      <point x="147" y="370"/>
      <point x="50" y="276"/>
      <point x="50" y="162" type="curve" smooth="yes"/>
      <point x="50" y="62"/>
      <point x="123" y="-10"/>
    </contour>
    <contour>
      <point x="550" y="0" type="line"/>
      <point x="640" y="0" type="line"/>
      <point x="640" y="714" type="line"/>
      <point x="550" y="714" type="line"/>
    </contour>
  </outline>
</glyph>
<glyph name="u16A56" format="2">
  <advance width="764"/>
  <unicode hex="16A56"/>
  <outline>
    <contour>
      <point x="576" y="14" type="curve"/>
      <point x="592" y="146" type="line"/>
      <point x="553" y="192"/>
      <point x="506" y="202"/>
      <point x="455" y="202" type="curve" smooth="yes"/>
      <point x="400" y="202"/>
      <point x="343" y="172"/>
      <point x="262" y="172" type="curve" smooth="yes"/>
      <point x="179" y="172"/>
      <point x="142" y="214"/>
      <point x="142" y="282" type="curve" smooth="yes"/>
      <point x="142" y="342"/>
      <point x="188" y="381"/>
      <point x="248" y="381" type="curve" smooth="yes"/>
      <point x="325" y="381"/>
      <point x="364" y="341"/>
      <point x="384" y="316" type="curve"/>
      <point x="437" y="362" type="line"/>
      <point x="405" y="400"/>
      <point x="353" y="461"/>
      <point x="246" y="461" type="curve" smooth="yes"/>
      <point x="123" y="461"/>
      <point x="50" y="380"/>
      <point x="50" y="280" type="curve" smooth="yes"/>
      <point x="50" y="175"/>
      <point x="117" y="92"/>
      <point x="262" y="92" type="curve" smooth="yes"/>
      <point x="337" y="92"/>
      <point x="385" y="122"/>
      <point x="440" y="122" type="curve" smooth="yes"/>
      <point x="497" y="122"/>
      <point x="552" y="112"/>
    </contour>
    <contour>
      <point x="574" y="0" type="line"/>
      <point x="664" y="0" type="line"/>
      <point x="664" y="714" type="line"/>
      <point x="574" y="714" type="line"/>
    </contour>
  </outline>
</glyph>
<glyph name="u16A57" format="2">
  <advance width="748"/>
  <unicode hex="16A57"/>
  <outline>
    <contour>
      <point x="405" y="-10" type="curve" smooth="yes"/>
      <point x="572" y="-10"/>
      <point x="676" y="82"/>
      <point x="698" y="214" type="curve"/>
      <point x="600" y="214" type="line"/>
      <point x="579" y="118"/>
      <point x="505" y="70"/>
      <point x="406" y="70" type="curve" smooth="yes"/>
      <point x="236" y="70"/>
      <point x="155" y="191"/>
      <point x="155" y="366" type="curve" smooth="yes"/>
      <point x="155" y="545"/>
      <point x="249" y="645"/>
      <point x="404" y="645" type="curve" smooth="yes"/>
      <point x="505" y="645"/>
      <point x="580" y="593"/>
      <point x="600" y="500" type="curve"/>
      <point x="698" y="500" type="line"/>
      <point x="677" y="628"/>
      <point x="573" y="725"/>
      <point x="395" y="725" type="curve" smooth="yes"/>
      <point x="193" y="725"/>
      <point x="60" y="580"/>
      <point x="60" y="367" type="curve" smooth="yes"/>
      <point x="60" y="142"/>
      <point x="169" y="-10"/>
    </contour>
  </outline>
</glyph>
<glyph name="u16A58" format="2">
  <advance width="746"/>
  <unicode hex="16A58"/>
  <outline>
    <contour>
      <point x="100" y="0" type="line"/>
      <point x="190" y="0" type="line"/>
      <point x="190" y="333" type="line"/>
      <point x="556" y="333" type="line"/>
      <point x="556" y="0" type="line"/>
      <point x="646" y="0" type="line"/>
      <point x="646" y="412" type="line"/>
      <point x="190" y="412" type="line"/>
      <point x="190" y="714" type="line"/>
      <point x="100" y="714" type="line"/>
    </contour>
  </outline>
</glyph>
<glyph name="u16A59" format="2">
  <advance width="370"/>
  <unicode hex="16A59"/>
  <outline>
    <contour>
      <point x="140" y="0" type="line"/>
      <point x="230" y="0" type="line"/>
      <point x="230" y="714" type="line"/>
      <point x="140" y="714" type="line"/>
    </contour>
  </outline>
</glyph>
<glyph name="u16A5A" format="2">
  <advance width="463"/>
  <unicode hex="16A5A"/>
  <outline>
    <contour>
      <point x="258" y="0" type="line"/>
      <point x="363" y="0" type="line"/>
      <point x="363" y="714" type="line"/>
      <point x="279" y="714" type="line"/>
      <point x="279" y="291" type="line" smooth="yes"/>
      <point x="279" y="226"/>
      <point x="284" y="135"/>
      <point x="286" y="103" type="curve"/>
      <point x="282" y="103" type="line"/>
      <point x="35" y="334" type="line"/>
      <point x="20" y="334" type="line"/>
      <point x="20" y="233" type="line"/>
    </contour>
  </outline>
</glyph>
<glyph name="u16A5B" format="2">
  <advance width="674"/>
  <unicode hex="16A5B"/>
  <outline>
    <contour>
      <point x="307" y="339" type="curve" smooth="yes"/>
      <point x="450" y="339"/>
      <point x="529" y="412"/>
      <point x="556" y="510" type="curve"/>
      <point x="484" y="564" type="line"/>
      <point x="484" y="454"/>
      <point x="399" y="419"/>
      <point x="316" y="419" type="curve" smooth="yes"/>
      <point x="208" y="419"/>
      <point x="140" y="460"/>
      <point x="140" y="564" type="curve" smooth="yes"/>
      <point x="140" y="715" type="line"/>
      <point x="50" y="715" type="line"/>
      <point x="50" y="565" type="line" smooth="yes"/>
      <point x="50" y="386"/>
      <point x="195" y="339"/>
    </contour>
    <contour>
      <point x="484" y="0" type="line"/>
      <point x="574" y="0" type="line"/>
      <point x="574" y="715" type="line"/>
      <point x="484" y="715" type="line"/>
    </contour>
    <contour>
      <point x="315" y="600" type="curve" smooth="yes"/>
      <point x="350" y="600"/>
      <point x="378" y="627"/>
      <point x="378" y="662" type="curve" smooth="yes"/>
      <point x="378" y="697"/>
      <point x="350" y="725"/>
      <point x="315" y="725" type="curve" smooth="yes"/>
      <point x="280" y="725"/>
      <point x="253" y="697"/>
      <point x="253" y="662" type="curve" smooth="yes"/>
      <point x="253" y="627"/>
      <point x="280" y="600"/>
    </contour>
  </outline>
</glyph>
<glyph name="u16A5C" format="2">
  <advance width="646"/>
  <unicode hex="16A5C"/>
  <outline>
    <contour>
      <point x="308" y="-10" type="curve" smooth="yes"/>
      <point x="463" y="-10"/>
      <point x="556" y="71"/>
      <point x="556" y="216" type="curve" smooth="yes"/>
      <point x="556" y="715" type="line"/>
      <point x="466" y="715" type="line"/>
      <point x="466" y="221" type="line" smooth="yes"/>
      <point x="466" y="114"/>
      <point x="398" y="69"/>
      <point x="308" y="69" type="curve" smooth="yes"/>
      <point x="215" y="69"/>
      <point x="142" y="114"/>
      <point x="142" y="191" type="curve" smooth="yes"/>
      <point x="142" y="262"/>
      <point x="201" y="297"/>
      <point x="294" y="297" type="curve" smooth="yes"/>
      <point x="372" y="297"/>
      <point x="445" y="273"/>
      <point x="490" y="256" type="curve"/>
      <point x="491" y="340" type="line"/>
      <point x="458" y="354"/>
      <point x="403" y="376"/>
      <point x="290" y="376" type="curve" smooth="yes"/>
      <point x="163" y="376"/>
      <point x="50" y="322"/>
      <point x="50" y="191" type="curve" smooth="yes"/>
      <point x="50" y="72"/>
      <point x="148" y="-10"/>
    </contour>
    <contour>
      <point x="299" y="449" type="curve" smooth="yes"/>
      <point x="408" y="449"/>
      <point x="538" y="483"/>
      <point x="538" y="676" type="curve" smooth="yes"/>
      <point x="538" y="685" type="line"/>
      <point x="466" y="685" type="line"/>
      <point x="466" y="675" type="line" smooth="yes"/>
      <point x="466" y="550"/>
      <point x="378" y="529"/>
      <point x="307" y="529" type="curve" smooth="yes"/>
      <point x="236" y="529"/>
      <point x="144" y="546"/>
      <point x="144" y="675" type="curve" smooth="yes"/>
      <point x="144" y="715" type="line"/>
      <point x="54" y="715" type="line"/>
      <point x="54" y="676" type="line" smooth="yes"/>
      <point x="54" y="488"/>
      <point x="191" y="449"/>
    </contour>
  </outline>
</glyph>
<glyph name="u16A5D" format="2">
  <advance width="634"/>
  <unicode hex="16A5D"/>
  <outline>
    <contour>
      <point x="303" y="-10" type="curve" smooth="yes"/>
      <point x="440" y="-10"/>
      <point x="544" y="68"/>
      <point x="544" y="237" type="curve" smooth="yes"/>
      <point x="544" y="715" type="line"/>
      <point x="454" y="715" type="line"/>
      <point x="454" y="226" type="line"/>
      <point x="454" y="119"/>
      <point x="381" y="70"/>
      <point x="298" y="70" type="curve" smooth="yes"/>
      <point x="205" y="70"/>
      <point x="145" y="124"/>
      <point x="145" y="218" type="curve" smooth="yes"/>
      <point x="145" y="314"/>
      <point x="209" y="368"/>
      <point x="302" y="368" type="curve" smooth="yes"/>
      <point x="402" y="368"/>
      <point x="454" y="299"/>
      <point x="454" y="229" type="curve"/>
      <point x="484" y="350" type="line"/>
      <point x="462" y="396"/>
      <point x="407" y="448"/>
      <point x="298" y="448" type="curve" smooth="yes"/>
      <point x="157" y="448"/>
      <point x="50" y="362"/>
      <point x="50" y="221" type="curve" smooth="yes"/>
      <point x="50" y="82"/>
      <point x="150" y="-10"/>
    </contour>
  </outline>
</glyph>
<glyph name="u16A5E" format="2">
  <advance width="966"/>
  <unicode hex="16A5E"/>
  <outline>
    <contour>
      <point x="776" y="0" type="line"/>
      <point x="866" y="0" type="line"/>
      <point x="866" y="508" type="line" smooth="yes"/>
      <point x="866" y="646"/>
      <point x="818" y="725"/>
      <point x="701" y="725" type="curve" smooth="yes"/>
      <point x="586" y="725"/>
      <point x="535" y="646"/>
      <point x="535" y="508" type="curve" smooth="yes"/>
      <point x="535" y="378" type="line" smooth="yes"/>
      <point x="535" y="249"/>
      <point x="480" y="232"/>
      <point x="417" y="232" type="curve" smooth="yes"/>
      <point x="342" y="232"/>
      <point x="325" y="258"/>
      <point x="315" y="300" type="curve"/>
      <point x="222" y="300" type="line"/>
      <point x="230" y="208"/>
      <point x="298" y="152"/>
      <point x="417" y="152" type="curve" smooth="yes"/>
      <point x="510" y="152"/>
      <point x="625" y="195"/>
      <point x="625" y="379" type="curve" smooth="yes"/>
      <point x="625" y="509" type="line" smooth="yes"/>
      <point x="625" y="598"/>
      <point x="639" y="645"/>
      <point x="701" y="645" type="curve" smooth="yes"/>
      <point x="766" y="645"/>
      <point x="776" y="593"/>
      <point x="776" y="509" type="curve" smooth="yes"/>
    </contour>
    <contour>
      <point x="346" y="-10" type="curve" smooth="yes"/>
      <point x="400" y="-10"/>
      <point x="445" y="-4"/>
      <point x="482" y="5" type="curve"/>
      <point x="482" y="90" type="line"/>
      <point x="455" y="80"/>
      <point x="410" y="70"/>
      <point x="344" y="70" type="curve" smooth="yes"/>
      <point x="243" y="70"/>
      <point x="145" y="117"/>
      <point x="145" y="238" type="curve" smooth="yes"/>
      <point x="145" y="359"/>
      <point x="243" y="407"/>
      <point x="344" y="407" type="curve" smooth="yes"/>
      <point x="409" y="407"/>
      <point x="454" y="397"/>
      <point x="482" y="386" type="curve"/>
      <point x="482" y="471" type="line"/>
      <point x="444" y="481"/>
      <point x="402" y="487"/>
      <point x="346" y="487" type="curve" smooth="yes"/>
      <point x="160" y="487"/>
      <point x="50" y="382"/>
      <point x="50" y="238" type="curve" smooth="yes"/>
      <point x="50" y="84"/>
      <point x="161" y="-10"/>
    </contour>
  </outline>
</glyph>
<glyph name="u16A60" format="2">
  <advance width="739"/>
  <unicode hex="16A60"/>
  <outline>
    <contour>
      <point x="370" y="-10" type="curve" smooth="yes"/>
      <point x="565" y="-10"/>
      <point x="679" y="137"/>
      <point x="679" y="358" type="curve" smooth="yes"/>
      <point x="679" y="580"/>
      <point x="561" y="725"/>
      <point x="371" y="725" type="curve" smooth="yes"/>
      <point x="177" y="725"/>
      <point x="60" y="578"/>
      <point x="60" y="359" type="curve" smooth="yes"/>
      <point x="60" y="138"/>
      <point x="167" y="-10"/>
    </contour>
    <contour>
      <point x="370" y="70" type="curve" smooth="yes"/>
      <point x="229" y="70"/>
      <point x="155" y="178"/>
      <point x="155" y="358" type="curve" smooth="yes"/>
      <point x="155" y="538"/>
      <point x="229" y="645"/>
      <point x="371" y="645" type="curve" smooth="yes"/>
      <point x="512" y="645"/>
      <point x="584" y="538"/>
      <point x="584" y="358" type="curve" smooth="yes"/>
      <point x="584" y="178"/>
      <point x="512" y="70"/>
    </contour>
  </outline>
</glyph>
<glyph name="u16A61" format="2">
  <advance width="622"/>
  <unicode hex="16A61"/>
  <outline>
    <contour>
      <point x="313" y="0" type="line"/>
      <point x="404" y="0" type="line"/>
      <point x="404" y="278" type="line" smooth="yes"/>
      <point x="404" y="397"/>
      <point x="332" y="484"/>
      <point x="216" y="484" type="curve" smooth="yes"/>
      <point x="107" y="484"/>
      <point x="64" y="426"/>
      <point x="64" y="364" type="curve" smooth="yes"/>
      <point x="64" y="317"/>
      <point x="113" y="240"/>
      <point x="261" y="240" type="curve" smooth="yes"/>
      <point x="395" y="240"/>
      <point x="562" y="309"/>
      <point x="562" y="491" type="curve" smooth="yes"/>
      <point x="562" y="624"/>
      <point x="458" y="725"/>
      <point x="286" y="725" type="curve" smooth="yes"/>
      <point x="191" y="725"/>
      <point x="107" y="686"/>
      <point x="60" y="638" type="curve"/>
      <point x="120" y="586" type="line"/>
      <point x="146" y="609"/>
      <point x="195" y="645"/>
      <point x="282" y="645" type="curve" smooth="yes"/>
      <point x="389" y="645"/>
      <point x="467" y="597"/>
      <point x="467" y="488" type="curve" smooth="yes"/>
      <point x="467" y="364"/>
      <point x="361" y="320"/>
      <point x="261" y="320" type="curve" smooth="yes"/>
      <point x="196" y="320"/>
      <point x="154" y="347"/>
      <point x="154" y="372" type="curve" smooth="yes"/>
      <point x="154" y="386"/>
      <point x="160" y="409"/>
      <point x="217" y="409" type="curve" smooth="yes"/>
      <point x="278" y="409"/>
      <point x="313" y="358"/>
      <point x="313" y="271" type="curve" smooth="yes"/>
    </contour>
    <contour>
      <point x="233" y="0" type="line"/>
      <point x="484" y="0" type="line"/>
      <point x="484" y="61" type="line"/>
      <point x="233" y="61" type="line"/>
    </contour>
  </outline>
</glyph>
<glyph name="u16A62" format="2">
  <advance width="608"/>
  <unicode hex="16A62"/>
  <outline>
    <contour>
      <point x="309" y="0" type="line"/>
      <point x="400" y="0" type="line"/>
      <point x="400" y="252" type="line" smooth="yes"/>
      <point x="400" y="355"/>
      <point x="328" y="444"/>
      <point x="207" y="444" type="curve" smooth="yes"/>
      <point x="103" y="444"/>
      <point x="60" y="389"/>
      <point x="60" y="335" type="curve" smooth="yes"/>
      <point x="60" y="263"/>
      <point x="128" y="200"/>
      <point x="274" y="200" type="curve" smooth="yes"/>
      <point x="434" y="200"/>
      <point x="548" y="267"/>
      <point x="548" y="373" type="curve" smooth="yes"/>
      <point x="548" y="486"/>
      <point x="406" y="529"/>
      <point x="292" y="550" type="curve" smooth="yes"/>
      <point x="227" y="562"/>
      <point x="175" y="573"/>
      <point x="175" y="602" type="curve" smooth="yes"/>
      <point x="175" y="630"/>
      <point x="218" y="645"/>
      <point x="296" y="645" type="curve" smooth="yes"/>
      <point x="349" y="645"/>
      <point x="393" y="638"/>
      <point x="452" y="611" type="curve"/>
      <point x="498" y="679" type="line"/>
      <point x="446" y="701"/>
      <point x="385" y="725"/>
      <point x="295" y="725" type="curve" smooth="yes"/>
      <point x="193" y="725"/>
      <point x="80" y="694"/>
      <point x="80" y="602" type="curve" smooth="yes"/>
      <point x="80" y="517"/>
      <point x="182" y="487"/>
      <point x="279" y="471" type="curve" smooth="yes"/>
      <point x="370" y="456"/>
      <point x="453" y="431"/>
      <point x="453" y="373" type="curve" smooth="yes"/>
      <point x="453" y="305"/>
      <point x="373" y="280"/>
      <point x="257" y="280" type="curve" smooth="yes"/>
      <point x="194" y="280"/>
      <point x="150" y="301"/>
      <point x="150" y="332" type="curve" smooth="yes"/>
      <point x="150" y="350"/>
      <point x="164" y="369"/>
      <point x="208" y="369" type="curve" smooth="yes"/>
      <point x="274" y="369"/>
      <point x="309" y="318"/>
      <point x="309" y="231" type="curve" smooth="yes"/>
    </contour>
  </outline>
</glyph>
<glyph name="u16A63" format="2">
  <advance width="570"/>
  <unicode hex="16A63"/>
  <outline>
    <contour>
      <point x="262" y="267" type="curve" smooth="yes"/>
      <point x="403" y="267"/>
      <point x="510" y="353"/>
      <point x="510" y="494" type="curve" smooth="yes"/>
      <point x="510" y="633"/>
      <point x="410" y="725"/>
      <point x="262" y="725" type="curve" smooth="yes"/>
      <point x="187" y="725"/>
      <point x="106" y="692"/>
      <point x="60" y="620" type="curve"/>
      <point x="119" y="573" type="line"/>
      <point x="152" y="622"/>
      <point x="211" y="645"/>
      <point x="262" y="645" type="curve" smooth="yes"/>
      <point x="355" y="645"/>
      <point x="415" y="591"/>
      <point x="415" y="497" type="curve" smooth="yes"/>
      <point x="415" y="401"/>
      <point x="351" y="347"/>
      <point x="258" y="347" type="curve" smooth="yes"/>
      <point x="222" y="347"/>
      <point x="178" y="357"/>
      <point x="151" y="398" type="curve"/>
      <point x="177" y="280" type="line"/>
      <point x="201" y="272"/>
      <point x="230" y="267"/>
    </contour>
    <contour>
      <point x="331" y="0" type="line"/>
      <point x="438" y="0" type="line"/>
      <point x="144" y="408" type="line"/>
      <point x="74" y="356" type="line"/>
    </contour>
  </outline>
</glyph>
<glyph name="u16A64" format="2">
  <advance width="570"/>
  <unicode hex="16A64"/>
  <outline>
    <contour>
      <point x="308" y="267" type="curve" smooth="yes"/>
      <point x="340" y="267"/>
      <point x="369" y="272"/>
      <point x="393" y="280" type="curve"/>
      <point x="419" y="398" type="line"/>
      <point x="392" y="357"/>
      <point x="348" y="347"/>
      <point x="312" y="347" type="curve" smooth="yes"/>
      <point x="219" y="347"/>
      <point x="155" y="401"/>
      <point x="155" y="497" type="curve" smooth="yes"/>
      <point x="155" y="591"/>
      <point x="215" y="645"/>
      <point x="308" y="645" type="curve" smooth="yes"/>
      <point x="359" y="645"/>
      <point x="418" y="622"/>
      <point x="451" y="573" type="curve"/>
      <point x="510" y="620" type="line"/>
      <point x="464" y="692"/>
      <point x="383" y="725"/>
      <point x="308" y="725" type="curve" smooth="yes"/>
      <point x="160" y="725"/>
      <point x="60" y="633"/>
      <point x="60" y="494" type="curve" smooth="yes"/>
      <point x="60" y="353"/>
      <point x="167" y="267"/>
    </contour>
    <contour>
      <point x="132" y="0" type="line"/>
      <point x="239" y="0" type="line"/>
      <point x="496" y="356" type="line"/>
      <point x="426" y="408" type="line"/>
    </contour>
  </outline>
</glyph>
<glyph name="u16A65" format="2">
  <advance width="651"/>
  <unicode hex="16A65"/>
  <outline>
    <contour>
      <point x="306" y="-10" type="curve" smooth="yes"/>
      <point x="478" y="-10"/>
      <point x="591" y="109"/>
      <point x="591" y="384" type="curve" smooth="yes"/>
      <point x="591" y="618"/>
      <point x="470" y="725"/>
      <point x="306" y="725" type="curve" smooth="yes"/>
      <point x="154" y="725"/>
      <point x="62" y="628"/>
      <point x="62" y="514" type="curve" smooth="yes"/>
      <point x="62" y="388"/>
      <point x="154" y="312"/>
      <point x="306" y="312" type="curve" smooth="yes"/>
      <point x="406" y="312"/>
      <point x="487" y="352"/>
      <point x="540" y="436" type="curve"/>
      <point x="506" y="518" type="line"/>
      <point x="476" y="446"/>
      <point x="399" y="392"/>
      <point x="303" y="392" type="curve" smooth="yes"/>
      <point x="205" y="392"/>
      <point x="157" y="440"/>
      <point x="157" y="513" type="curve" smooth="yes"/>
      <point x="157" y="589"/>
      <point x="216" y="645"/>
      <point x="303" y="645" type="curve" smooth="yes"/>
      <point x="444" y="645"/>
      <point x="496" y="542"/>
      <point x="496" y="388" type="curve" smooth="yes"/>
      <point x="496" y="139"/>
      <point x="419" y="70"/>
      <point x="303" y="70" type="curve" smooth="yes"/>
      <point x="217" y="70"/>
      <point x="175" y="111"/>
      <point x="151" y="158" type="curve"/>
      <point x="60" y="141" type="line"/>
      <point x="99" y="35"/>
      <point x="187" y="-10"/>
    </contour>
  </outline>
</glyph>
<glyph name="u16A66" format="2">
  <advance width="770"/>
  <unicode hex="16A66"/>
  <outline>
    <contour>
      <point x="287" y="267" type="curve" smooth="yes"/>
      <point x="373" y="267"/>
      <point x="411" y="288"/>
      <point x="446" y="334" type="curve"/>
      <point x="410" y="430" type="line"/>
      <point x="395" y="363"/>
      <point x="344" y="347"/>
      <point x="291" y="347" type="curve" smooth="yes"/>
      <point x="228" y="347"/>
      <point x="155" y="401"/>
      <point x="155" y="497" type="curve" smooth="yes"/>
      <point x="155" y="591"/>
      <point x="215" y="645"/>
      <point x="308" y="645" type="curve" smooth="yes"/>
      <point x="330" y="645"/>
      <point x="353" y="641"/>
      <point x="375" y="632" type="curve"/>
      <point x="411" y="704" type="line"/>
      <point x="378" y="719"/>
      <point x="342" y="725"/>
      <point x="308" y="725" type="curve" smooth="yes"/>
      <point x="160" y="725"/>
      <point x="60" y="633"/>
      <point x="60" y="494" type="curve" smooth="yes"/>
      <point x="60" y="353"/>
      <point x="167" y="267"/>
    </contour>
    <contour>
      <point x="575" y="-10" type="curve" smooth="yes"/>
      <point x="683" y="-10"/>
      <point x="736" y="57"/>
      <point x="740" y="182" type="curve"/>
      <point x="651" y="182" type="line"/>
      <point x="649" y="108"/>
      <point x="635" y="70"/>
      <point x="575" y="70" type="curve" smooth="yes"/>
      <point x="510" y="70"/>
      <point x="500" y="122"/>
      <point x="500" y="206" type="curve" smooth="yes"/>
      <point x="500" y="458" type="line"/>
      <point x="410" y="458" type="line"/>
      <point x="410" y="207" type="line" smooth="yes"/>
      <point x="410" y="69"/>
      <point x="458" y="-10"/>
    </contour>
  </outline>
</glyph>
<glyph name="u16A67" format="2">
  <advance width="712"/>
  <unicode hex="16A67"/>
  <outline>
    <contour>
      <point x="311" y="0" type="line"/>
      <point x="401" y="0" type="line"/>
      <point x="401" y="350" type="line"/>
      <point x="424" y="322"/>
      <point x="460" y="305"/>
      <point x="507" y="305" type="curve" smooth="yes"/>
      <point x="602" y="305"/>
      <point x="672" y="390"/>
      <point x="672" y="517" type="curve" smooth="yes"/>
      <point x="672" y="641"/>
      <point x="598" y="725"/>
      <point x="496" y="725" type="curve" smooth="yes"/>
      <point x="437" y="725"/>
      <point x="388" y="693"/>
      <point x="356" y="645" type="curve"/>
      <point x="324" y="693"/>
      <point x="275" y="725"/>
      <point x="212" y="725" type="curve" smooth="yes"/>
      <point x="114" y="725"/>
      <point x="40" y="641"/>
      <point x="40" y="513" type="curve" smooth="yes"/>
      <point x="40" y="396"/>
      <point x="105" y="305"/>
      <point x="210" y="305" type="curve" smooth="yes"/>
      <point x="252" y="305"/>
      <point x="288" y="325"/>
      <point x="311" y="350" type="curve"/>
    </contour>
    <contour>
      <point x="218" y="385" type="curve" smooth="yes"/>
      <point x="154" y="385"/>
      <point x="127" y="444"/>
      <point x="127" y="515" type="curve" smooth="yes"/>
      <point x="127" y="584"/>
      <point x="158" y="645"/>
      <point x="219" y="645" type="curve" smooth="yes"/>
      <point x="277" y="645"/>
      <point x="311" y="589"/>
      <point x="311" y="519" type="curve" smooth="yes"/>
      <point x="311" y="506" type="line" smooth="yes"/>
      <point x="311" y="427"/>
      <point x="264" y="385"/>
    </contour>
    <contour>
      <point x="494" y="385" type="curve" smooth="yes"/>
      <point x="445" y="385"/>
      <point x="404" y="429"/>
      <point x="401" y="509" type="curve" smooth="yes"/>
      <point x="401" y="520" type="line" smooth="yes"/>
      <point x="401" y="589"/>
      <point x="437" y="645"/>
      <point x="493" y="645" type="curve" smooth="yes"/>
      <point x="555" y="645"/>
      <point x="585" y="588"/>
      <point x="585" y="521" type="curve" smooth="yes"/>
      <point x="585" y="449"/>
      <point x="559" y="385"/>
    </contour>
  </outline>
</glyph>
<glyph name="u16A68" format="2">
  <advance width="810"/>
  <unicode hex="16A68"/>
  <outline>
    <contour>
      <point x="308" y="-10" type="curve" smooth="yes"/>
      <point x="450" y="-10"/>
      <point x="531" y="70"/>
      <point x="639" y="221" type="curve" smooth="yes"/>
      <point x="736" y="356" type="line"/>
      <point x="666" y="408" type="line"/>
      <point x="568" y="272" type="line" smooth="yes"/>
      <point x="474" y="142"/>
      <point x="411" y="70"/>
      <point x="308" y="70" type="curve" smooth="yes"/>
      <point x="215" y="70"/>
      <point x="155" y="124"/>
      <point x="155" y="218" type="curve" smooth="yes"/>
      <point x="155" y="272"/>
      <point x="175" y="312"/>
      <point x="209" y="337" type="curve"/>
      <point x="152" y="399" type="line"/>
      <point x="96" y="360"/>
      <point x="60" y="294"/>
      <point x="60" y="221" type="curve" smooth="yes"/>
      <point x="60" y="82"/>
      <point x="160" y="-10"/>
    </contour>
    <contour>
      <point x="548" y="267" type="curve" smooth="yes"/>
      <point x="580" y="267"/>
      <point x="609" y="272"/>
      <point x="633" y="280" type="curve"/>
      <point x="659" y="398" type="line"/>
      <point x="632" y="357"/>
      <point x="588" y="347"/>
      <point x="552" y="347" type="curve" smooth="yes"/>
      <point x="459" y="347"/>
      <point x="395" y="401"/>
      <point x="395" y="497" type="curve" smooth="yes"/>
      <point x="395" y="591"/>
      <point x="455" y="645"/>
      <point x="548" y="645" type="curve" smooth="yes"/>
      <point x="599" y="645"/>
      <point x="658" y="622"/>
      <point x="691" y="573" type="curve"/>
      <point x="750" y="620" type="line"/>
      <point x="704" y="692"/>
      <point x="623" y="725"/>
      <point x="548" y="725" type="curve" smooth="yes"/>
      <point x="400" y="725"/>
      <point x="300" y="633"/>
      <point x="300" y="494" type="curve" smooth="yes"/>
      <point x="300" y="353"/>
      <point x="407" y="267"/>
    </contour>
  </outline>
</glyph>
<glyph name="u16A69" format="2">
  <advance width="886"/>
  <unicode hex="16A69"/>
  <outline>
    <contour>
      <point x="469" y="-10" type="curve" smooth="yes"/>
      <point x="627" y="-10"/>
      <point x="801" y="90"/>
      <point x="856" y="638" type="curve"/>
      <point x="786" y="649" type="line"/>
      <point x="728" y="194"/>
      <point x="594" y="70"/>
      <point x="471" y="70" type="curve" smooth="yes"/>
      <point x="382" y="70"/>
      <point x="320" y="115"/>
      <point x="320" y="191" type="curve" smooth="yes"/>
      <point x="320" y="271"/>
      <point x="380" y="332"/>
      <point x="469" y="377" type="curve"/>
      <point x="413" y="438" type="line"/>
      <point x="382" y="411"/>
      <point x="338" y="382"/>
      <point x="286" y="382" type="curve" smooth="yes"/>
      <point x="223" y="382"/>
      <point x="155" y="430"/>
      <point x="155" y="514" type="curve" smooth="yes"/>
      <point x="155" y="588"/>
      <point x="211" y="645"/>
      <point x="293" y="645" type="curve" smooth="yes"/>
      <point x="331" y="645"/>
      <point x="387" y="628"/>
      <point x="421" y="585" type="curve"/>
      <point x="476" y="633" type="line"/>
      <point x="429" y="696"/>
      <point x="353" y="725"/>
      <point x="283" y="725" type="curve" smooth="yes"/>
      <point x="158" y="725"/>
      <point x="60" y="633"/>
      <point x="60" y="514" type="curve" smooth="yes"/>
      <point x="60" y="386"/>
      <point x="156" y="310"/>
      <point x="263" y="302" type="curve"/>
      <point x="240" y="275"/>
      <point x="225" y="240"/>
      <point x="225" y="181" type="curve" smooth="yes"/>
      <point x="225" y="82"/>
      <point x="310" y="-10"/>
    </contour>
  </outline>
</glyph>
<glyph name="u16A6E" format="2">
  <advance width="622"/>
  <unicode hex="16A6E"/>
  <outline>
    <contour>
      <point x="310" y="-1" type="line"/>
      <point x="422" y="-1" type="line"/>
      <point x="582" y="176" type="line"/>
      <point x="470" y="176" type="line"/>
    </contour>
    <contour>
      <point x="139" y="-10" type="curve" smooth="yes"/>
      <point x="195" y="-10"/>
      <point x="239" y="33"/>
      <point x="239" y="89" type="curve" smooth="yes"/>
      <point x="239" y="145"/>
      <point x="195" y="189"/>
      <point x="139" y="189" type="curve" smooth="yes"/>
      <point x="83" y="189"/>
      <point x="40" y="145"/>
      <point x="40" y="89" type="curve" smooth="yes"/>
      <point x="40" y="33"/>
      <point x="83" y="-10"/>
    </contour>
  </outline>
</glyph>
<glyph name="u16A6F" format="2">
  <advance width="892"/>
  <unicode hex="16A6F"/>
  <outline>
    <contour>
      <point x="580" y="-1" type="line"/>
      <point x="692" y="-1" type="line"/>
      <point x="852" y="176" type="line"/>
      <point x="740" y="176" type="line"/>
    </contour>
    <contour>
      <point x="139" y="-10" type="curve" smooth="yes"/>
      <point x="195" y="-10"/>
      <point x="239" y="33"/>
      <point x="239" y="89" type="curve" smooth="yes"/>
      <point x="239" y="145"/>
      <point x="195" y="189"/>
      <point x="139" y="189" type="curve" smooth="yes"/>
      <point x="83" y="189"/>
      <point x="40" y="145"/>
      <point x="40" y="89" type="curve" smooth="yes"/>
      <point x="40" y="33"/>
      <point x="83" y="-10"/>
    </contour>
    <contour>
      <point x="310" y="-1" type="line"/>
      <point x="422" y="-1" type="line"/>
      <point x="582" y="176" type="line"/>
      <point x="470" y="176" type="line"/>
    </contour>
  </outline>
</glyph>
